<svg width="300" height="243" viewBox="0 0 300 243" fill="none" xmlns="http://www.w3.org/2000/svg">
<g clip-path="url(#clip0_2067_3751)">
<path d="M297.284 140.859H68.2225C67.6332 140.859 67.0683 140.623 66.6516 140.203C66.235 139.783 66.0006 139.215 66 138.621V2.23823C66.0006 1.64481 66.235 1.07589 66.6516 0.656278C67.0683 0.236668 67.6332 0.000647801 68.2225 0H297.284C297.874 0.000647803 298.439 0.236669 298.855 0.656279C299.272 1.07589 299.506 1.64481 299.507 2.23823V138.621C299.506 139.215 299.272 139.783 298.855 140.203C298.439 140.623 297.874 140.859 297.284 140.859ZM68.2225 0.895292C67.8689 0.89568 67.53 1.03729 67.28 1.28906C67.03 1.54082 66.8894 1.88218 66.889 2.23823V138.621C66.8894 138.977 67.03 139.319 67.28 139.57C67.53 139.822 67.8689 139.964 68.2225 139.964H297.284C297.638 139.964 297.977 139.822 298.227 139.57C298.477 139.319 298.618 138.977 298.618 138.621V2.23823C298.618 1.88218 298.477 1.54083 298.227 1.28906C297.977 1.03729 297.638 0.89568 297.284 0.895292H68.2225Z" fill="#E6E6E6"/>
<path d="M161.167 10.8919C160.704 10.8996 160.264 11.09 159.94 11.422C159.616 11.7539 159.434 12.2008 159.434 12.6663C159.434 13.1319 159.616 13.5788 159.94 13.9107C160.264 14.2426 160.704 14.433 161.167 14.4408H205.345C205.811 14.4477 206.262 14.2682 206.597 13.9415C206.932 13.6148 207.125 13.1677 207.133 12.698C207.141 12.2284 206.964 11.7745 206.641 11.436C206.318 11.0974 205.874 10.9018 205.408 10.8919L205.403 10.8919C205.384 10.8915 205.364 10.8915 205.345 10.8919H161.167Z" fill="#3F3D56"/>
<path d="M215.364 10.3982C215.299 10.4636 215.262 10.5525 215.262 10.6451C215.262 10.7377 215.299 10.8265 215.364 10.892L215.364 10.892L216.852 12.391H213.182C213.09 12.3912 213.002 12.4282 212.937 12.4936C212.872 12.5591 212.836 12.6477 212.836 12.7401C212.836 12.8326 212.872 12.9212 212.937 12.9867C213.002 13.0521 213.09 13.0891 213.182 13.0893H216.852L215.364 14.5883C215.331 14.6207 215.306 14.6592 215.288 14.7016C215.271 14.744 215.262 14.7894 215.262 14.8352C215.262 14.8811 215.271 14.9265 215.288 14.9688C215.306 15.0112 215.331 15.0497 215.364 15.0821C215.396 15.1146 215.434 15.1403 215.476 15.1578C215.518 15.1754 215.563 15.1844 215.609 15.1844C215.654 15.1844 215.699 15.1754 215.741 15.1578C215.784 15.1403 215.822 15.1146 215.854 15.0821L217.934 12.9871C217.999 12.9216 218.036 12.8328 218.036 12.7402C218.036 12.6475 217.999 12.5587 217.934 12.4932L215.854 10.3982C215.822 10.3657 215.784 10.34 215.741 10.3225C215.699 10.3049 215.654 10.2959 215.609 10.2959C215.563 10.2959 215.518 10.3049 215.476 10.3225C215.434 10.34 215.396 10.3657 215.364 10.3982L215.364 10.3982Z" fill="#E6E6E6"/>
<path d="M151.129 10.3982C151.194 10.4636 151.231 10.5525 151.231 10.6451C151.231 10.7377 151.195 10.8265 151.13 10.892L151.129 10.892L149.641 12.391H153.311C153.357 12.3908 153.402 12.3997 153.444 12.4171C153.487 12.4346 153.525 12.4602 153.557 12.4926C153.59 12.525 153.615 12.5635 153.633 12.6059C153.65 12.6483 153.659 12.6938 153.659 12.7397C153.659 12.7857 153.651 12.8312 153.633 12.8736C153.616 12.9161 153.59 12.9546 153.558 12.9871C153.526 13.0196 153.487 13.0453 153.445 13.0629C153.403 13.0804 153.358 13.0894 153.312 13.0893H149.641L151.129 14.5883C151.162 14.6207 151.187 14.6592 151.205 14.7016C151.222 14.744 151.231 14.7894 151.231 14.8352C151.231 14.8811 151.222 14.9265 151.205 14.9689C151.187 15.0112 151.162 15.0497 151.129 15.0821C151.097 15.1146 151.059 15.1403 151.017 15.1578C150.975 15.1754 150.93 15.1844 150.884 15.1844C150.839 15.1844 150.794 15.1754 150.752 15.1578C150.71 15.1403 150.671 15.1146 150.639 15.0821L148.559 12.9871C148.494 12.9216 148.457 12.8328 148.457 12.7402C148.457 12.6476 148.494 12.5587 148.559 12.4932L150.639 10.3982C150.704 10.3327 150.792 10.2959 150.884 10.2959C150.976 10.2959 151.064 10.3327 151.129 10.3982L151.129 10.3982Z" fill="#E6E6E6"/>
<path d="M66.3604 148.372C64.3517 148.372 62.3882 147.772 60.7181 146.648C59.0479 145.524 57.7462 143.927 56.9775 142.058C56.2089 140.189 56.0077 138.133 56.3996 136.149C56.7915 134.165 57.7587 132.342 59.1791 130.912C60.5994 129.481 62.409 128.507 64.3791 128.113C66.3491 127.718 68.3911 127.92 70.2469 128.695C72.1026 129.469 73.6888 130.78 74.8047 132.462C75.9207 134.144 76.5163 136.121 76.5163 138.144C76.5163 140.857 75.4463 143.458 73.5417 145.376C71.6371 147.294 69.0539 148.372 66.3604 148.372Z" fill="#660060"/>
<path d="M70.3677 137.135H67.3623V134.109C67.3623 133.841 67.2567 133.584 67.0688 133.395C66.8809 133.206 66.6261 133.1 66.3604 133.1C66.0947 133.1 65.8399 133.206 65.652 133.395C65.4642 133.584 65.3586 133.841 65.3586 134.109V137.135H62.3531C62.0874 137.135 61.8326 137.242 61.6447 137.431C61.4569 137.62 61.3513 137.877 61.3513 138.144C61.3513 138.412 61.4569 138.668 61.6447 138.858C61.8326 139.047 62.0874 139.153 62.3531 139.153H65.3586V142.18C65.3586 142.448 65.4641 142.704 65.652 142.893C65.8399 143.083 66.0947 143.189 66.3604 143.189C66.6261 143.189 66.8809 143.083 67.0688 142.893C67.2567 142.704 67.3622 142.448 67.3622 142.18V139.153H70.3677C70.6334 139.153 70.8882 139.047 71.0761 138.858C71.2639 138.668 71.3695 138.412 71.3695 138.144C71.3695 137.877 71.2639 137.62 71.0761 137.431C70.8882 137.242 70.6334 137.135 70.3677 137.135Z" fill="white"/>
<path d="M115.535 29.0605H85.0135V49.9507H115.535V29.0605Z" fill="#F1F1F1"/>
<path d="M157.021 29.0605H126.5V49.9507H157.021V29.0605Z" fill="#F1F1F1"/>
<path d="M198.507 29.0605H167.986V49.9507H198.507V29.0605Z" fill="#F1F1F1"/>
<path d="M239.993 29.0605H209.472V49.9507H239.993V29.0605Z" fill="#F1F1F1"/>
<path d="M281.48 29.0605H250.958V49.9507H281.48V29.0605Z" fill="#F1F1F1"/>
<path d="M115.647 65.7676H85.1255V86.6577H115.647V65.7676Z" fill="#F1F1F1"/>
<path d="M157.133 65.7676H126.611V86.6577H157.133V65.7676Z" fill="#F1F1F1"/>
<path d="M198.619 65.7676H168.098V86.6577H198.619V65.7676Z" fill="#F1F1F1"/>
<path d="M240.105 65.7676H209.583V86.6577H240.105V65.7676Z" fill="#F1F1F1"/>
<path d="M197.522 60H167V80.8902H197.522V60Z" fill="#F1F1F1"/>
<path d="M115.759 102.475H85.2374V123.365H115.759V102.475Z" fill="#F1F1F1"/>
<path d="M157.245 102.475H126.723V123.365H157.245V102.475Z" fill="#F1F1F1"/>
<path d="M198.731 102.475H168.209V123.365H198.731V102.475Z" fill="#F1F1F1"/>
<path d="M240.217 102.475H209.695V123.365H240.217V102.475Z" fill="#F1F1F1"/>
<path d="M281.703 102.475H251.181V123.365H281.703V102.475Z" fill="#F1F1F1"/>
<path d="M174.32 39.5053C176.448 39.5053 178.173 37.7683 178.173 35.6257C178.173 33.483 176.448 31.7461 174.32 31.7461C172.193 31.7461 170.468 33.483 170.468 35.6257C170.468 37.7683 172.193 39.5053 174.32 39.5053Z" fill="#660060"/>
<path d="M132.242 76.2123C134.369 76.2123 136.094 74.4754 136.094 72.3327C136.094 70.1901 134.369 68.4531 132.242 68.4531C130.114 68.4531 128.389 70.1901 128.389 72.3327C128.389 74.4754 130.114 76.2123 132.242 76.2123Z" fill="#660060"/>
<path d="M174.32 112.919C176.448 112.919 178.173 111.182 178.173 109.04C178.173 106.897 176.448 105.16 174.32 105.16C172.193 105.16 170.468 106.897 170.468 109.04C170.468 111.182 172.193 112.919 174.32 112.919Z" fill="#660060"/>
<path d="M216.695 76.2123C218.823 76.2123 220.548 74.4754 220.548 72.3327C220.548 70.1901 218.823 68.4531 216.695 68.4531C214.568 68.4531 212.843 70.1901 212.843 72.3327C212.843 74.4754 214.568 76.2123 216.695 76.2123Z" fill="#3F3D56"/>
<path d="M257.885 76.2123C260.013 76.2123 261.737 74.4754 261.737 72.3327C261.737 70.1901 260.013 68.4531 257.885 68.4531C255.758 68.4531 254.033 70.1901 254.033 72.3327C254.033 74.4754 255.758 76.2123 257.885 76.2123Z" fill="#3F3D56"/>
<path d="M132.242 112.919C134.369 112.919 136.094 111.182 136.094 109.04C136.094 106.897 134.369 105.16 132.242 105.16C130.114 105.16 128.389 106.897 128.389 109.04C128.389 111.182 130.114 112.919 132.242 112.919Z" fill="#3F3D56"/>
<path d="M31.2379 146.095C35.1895 146.095 38.3929 142.869 38.3929 138.889C38.3929 134.91 35.1895 131.684 31.2379 131.684C27.2863 131.684 24.0829 134.91 24.0829 138.889C24.0829 142.869 27.2863 146.095 31.2379 146.095Z" fill="#FFB8B8"/>
<path d="M28.6547 181.526C28.5645 181.526 28.474 181.522 28.3831 181.514C27.9331 181.476 27.4961 181.343 27.1008 181.124C26.7055 180.904 26.3607 180.602 26.0891 180.239C25.8175 179.876 25.6252 179.459 25.5247 179.015C25.4243 178.572 25.4181 178.112 25.5064 177.666C25.5273 177.563 25.5535 177.46 25.585 177.359L15.0248 164.781C14.6807 164.368 14.4781 163.854 14.4469 163.316C14.4157 162.778 14.5576 162.244 14.8516 161.793L14.8708 161.77L24.3762 152.33C24.8953 151.816 25.596 151.53 26.3244 151.535C27.0528 151.541 27.7492 151.837 28.2606 152.36C28.772 152.882 29.0565 153.587 29.0517 154.321C29.0468 155.054 28.7529 155.756 28.2346 156.271C28.2227 156.283 28.2106 156.295 28.1985 156.307L21.314 162.898L28.8508 175.08C28.9936 175.088 29.1356 175.105 29.2759 175.133C30.0555 175.29 30.7495 175.733 31.2231 176.376C31.6966 177.019 31.916 177.816 31.8386 178.613C31.7612 179.41 31.3925 180.149 30.8041 180.687C30.2157 181.226 29.4496 181.525 28.6547 181.526Z" fill="#FFB8B8"/>
<path d="M43.0221 239.175H46.5938L48.2927 225.302L43.0215 225.302L43.0221 239.175Z" fill="#FFB8B8"/>
<path d="M42.1112 238.001L49.1447 238.001H49.145C49.7336 238.001 50.3164 238.118 50.8602 238.345C51.404 238.571 51.8982 238.904 52.3144 239.323C52.7306 239.742 53.0608 240.24 53.286 240.787C53.5113 241.335 53.6273 241.922 53.6273 242.515V242.662L42.1114 242.662L42.1112 238.001Z" fill="#2F2E41"/>
<path d="M7.5238 234.203L10.5925 236.043L19.1004 224.998L14.5712 222.282L7.5238 234.203Z" fill="#FFB8B8"/>
<path d="M7.33758 232.724L13.381 236.347L13.3812 236.348C14.4026 236.96 15.1406 237.956 15.4328 239.116C15.725 240.277 15.5475 241.507 14.9394 242.535L14.9393 242.536L14.8648 242.662L4.96997 236.728L7.33758 232.724Z" fill="#2F2E41"/>
<path d="M47.4364 234.275H43.4371C43.1133 234.276 42.8008 234.155 42.56 233.937C42.3192 233.719 42.1673 233.419 42.1336 233.094L38.1018 194.926C38.0916 194.83 38.0503 194.74 37.9843 194.67C37.9183 194.6 37.8312 194.554 37.7365 194.538C37.6417 194.523 37.5446 194.54 37.4601 194.585C37.3757 194.631 37.3085 194.704 37.2689 194.792L29.9954 211.012L17.1181 232.159C16.9514 232.43 16.6934 232.631 16.3912 232.726C16.089 232.822 15.7629 232.804 15.4726 232.677L10.3282 230.397C10.1581 230.322 10.0059 230.211 9.88159 230.072C9.75731 229.933 9.66382 229.768 9.60733 229.59C9.55084 229.412 9.53263 229.223 9.55391 229.037C9.5752 228.851 9.63548 228.672 9.73078 228.511L21.5686 208.549L25.1992 191.73C24.0573 184.436 28.9524 173.593 29.0021 173.484L29.0263 173.431L42.5101 168.123L42.5777 168.206C47.8954 185.781 51.1357 204.694 48.7431 233.065C48.7136 233.395 48.5634 233.701 48.3218 233.925C48.0802 234.148 47.7646 234.273 47.4364 234.275Z" fill="#2F2E41"/>
<path d="M28.4832 175.208L28.4204 175.075C28.3903 175.011 25.3921 168.643 23.0809 161.836C22.6367 160.52 22.4688 159.125 22.5878 157.74C22.7068 156.355 23.1101 155.01 23.7721 153.79C24.4428 152.558 25.3603 151.479 26.4666 150.622C27.5728 149.765 28.8437 149.149 30.1987 148.813C32.551 148.245 35.0276 148.547 37.1772 149.664C39.3269 150.781 41.0065 152.639 41.9102 154.899C43.7435 159.516 43.1592 164.444 42.6093 168.32L42.5984 168.397L42.5282 168.431L28.4832 175.208Z" fill="#660060"/>
<path d="M39.9132 134.819H28.5519V129.831C31.0456 128.834 33.4858 127.985 34.9608 129.831C36.2743 129.831 37.5339 130.357 38.4627 131.292C39.3914 132.228 39.9132 133.496 39.9132 134.819H39.9132Z" fill="#2F2E41"/>
<path d="M27.9228 128.951C21.1308 128.951 19.2297 137.525 19.2297 142.362C19.2297 145.06 20.4411 146.024 22.3446 146.351L23.0169 142.74L24.5913 146.506C25.126 146.509 25.6878 146.498 26.2701 146.488L26.8039 145.381L27.9944 146.468C32.7622 146.475 36.6158 147.175 36.6158 142.362C36.6158 137.525 34.9486 128.951 27.9228 128.951Z" fill="#2F2E41"/>
<path d="M58.1128 138.547C58.156 138.627 58.1959 138.709 58.2325 138.793C58.4153 139.209 58.5088 139.659 58.5068 140.113C58.5049 140.568 58.4075 141.017 58.2211 141.432C58.0348 141.846 57.7636 142.216 57.4254 142.517C57.0872 142.818 56.6895 143.044 56.2586 143.18C56.1583 143.211 56.0565 143.237 55.9535 143.258L50.0559 158.621C49.8609 159.123 49.5104 159.549 49.0563 159.835C48.6023 160.12 48.0688 160.251 47.5352 160.207L47.5056 160.201L34.723 156.326C34.0252 156.114 33.4395 155.632 33.0947 154.986C32.7498 154.339 32.6742 153.581 32.8843 152.878C33.0944 152.176 33.5731 151.586 34.2151 151.238C34.8571 150.891 35.6098 150.815 36.3076 151.027C36.3235 151.031 36.3394 151.036 36.3553 151.041L45.3996 153.966L52.4017 141.464C52.3398 141.334 52.2871 141.2 52.2438 141.063C52.0066 140.299 52.0599 139.473 52.3932 138.747C52.7265 138.02 53.3161 137.444 54.0476 137.13C54.779 136.816 55.6001 136.788 56.3513 137.05C57.1026 137.311 57.7304 137.845 58.1129 138.547L58.1128 138.547Z" fill="#FFB8B8"/>
<path d="M59.5951 243H0.308783C0.226889 243 0.148348 242.967 0.0904402 242.909C0.0325322 242.85 0 242.771 0 242.689C0 242.606 0.0325322 242.527 0.0904402 242.469C0.148348 242.411 0.226889 242.378 0.308783 242.378H59.5951C59.677 242.378 59.7555 242.411 59.8134 242.469C59.8714 242.527 59.9039 242.606 59.9039 242.689C59.9039 242.771 59.8714 242.85 59.8134 242.909C59.7555 242.967 59.677 243 59.5951 243Z" fill="#CCCCCC"/>
</g>
<defs>
<clipPath id="clip0_2067_3751">
<rect width="300" height="243" fill="white"/>
</clipPath>
</defs>
</svg>
